<?xml version="1.0"?>
<svg xmlns="http://www.w3.org/2000/svg" xmlns:xlink="http://www.w3.org/1999/xlink" xmlns:svgjs="http://svgjs.com/svgjs" version="1.1" width="512" height="512" x="0" y="0" viewBox="0 0 24 24" style="enable-background:new 0 0 512 512" xml:space="preserve" class=""><circle r="12" cx="12" cy="12" fill="#eafcfc" shape="circle"/><g transform="matrix(0.7,0,0,0.7,3.5999999821186073,3.6000000000000014)"><g xmlns="http://www.w3.org/2000/svg"><path d="m5 11c-2.757 0-5-2.243-5-5s2.243-5 5-5 5 2.243 5 5-2.243 5-5 5zm0-9c-2.206 0-4 1.794-4 4s1.794 4 4 4 4-1.794 4-4-1.794-4-4-4z" fill="#5d85cb" data-original="#000000" style=""/></g><g xmlns="http://www.w3.org/2000/svg"><path d="m21 9h-12.26c-.276 0-.5-.224-.5-.5s.224-.5.5-.5h12.26c.537 0 1.04-.207 1.417-.584.371-.37.583-.886.583-1.416 0-1.103-.897-2-2-2h-12.26c-.276 0-.5-.224-.5-.5s.224-.5.5-.5h12.26c1.654 0 3 1.346 3 3 0 .794-.32 1.567-.877 2.123-.565.565-1.319.877-2.123.877z" fill="#5d85cb" data-original="#000000" style=""/></g><g xmlns="http://www.w3.org/2000/svg"><path d="m19 23c-2.757 0-5-2.243-5-5s2.243-5 5-5 5 2.243 5 5-2.243 5-5 5zm0-9c-2.206 0-4 1.794-4 4s1.794 4 4 4 4-1.794 4-4-1.794-4-4-4z" fill="#5d85cb" data-original="#000000" style=""/></g><g xmlns="http://www.w3.org/2000/svg"><path d="m15.26 21h-12.26c-.804 0-1.558-.312-2.124-.877-.556-.556-.876-1.329-.876-2.123 0-1.654 1.346-3 3-3h12.26c.276 0 .5.224.5.5s-.224.5-.5.5h-12.26c-1.103 0-2 .897-2 2 0 .53.212 1.046.583 1.416.377.377.88.584 1.417.584h12.26c.276 0 .5.224.5.5s-.224.5-.5.5z" fill="#5d85cb" data-original="#000000" style=""/></g></g></svg>
