<?xml version="1.0"?>
<svg xmlns="http://www.w3.org/2000/svg" xmlns:xlink="http://www.w3.org/1999/xlink" xmlns:svgjs="http://svgjs.com/svgjs" version="1.1" width="512" height="512" x="0" y="0" viewBox="0 0 512 512" style="enable-background:new 0 0 512 512" xml:space="preserve"><circle r="256" cx="256" cy="256" fill="#eafcfc" shape="circle"/><g transform="matrix(0.7,0,0,0.7,76.80014877319337,76.80000000000001)">
<g xmlns="http://www.w3.org/2000/svg">
	<g>
		<path d="M450.818,296.951c-2.831-0.982-69.903-23.702-117.861,7.117c-11.667,7.497-20.916,17.344-28.245,27.99V261.13    c54.494-19.93,93.494-72.3,93.494-133.611V0l-78.105,48.641L256.561,9.4l-64.135,39.282L113.792,0.119V127.52    c0,61.31,39,113.681,93.495,133.611v70.928c-7.329-10.647-16.579-20.493-28.245-27.99c-47.958-30.819-115.03-8.098-117.861-7.117    l-11.127,3.859l1.112,11.726c0.283,2.983,7.481,73.432,55.439,104.252c19.216,12.349,41.5,16.102,61.492,16.102    c15.167,0,29.006-2.161,39.192-4.367V512h97.423v-83.475c10.185,2.206,24.024,4.366,39.192,4.366    c19.989,0,42.278-3.755,61.492-16.102c47.958-30.82,55.156-101.269,55.439-104.252l1.112-11.726L450.818,296.951z     M122.819,391.555c-25.539-16.412-35.915-51.1-39.762-69.612c20.735-4.693,55.76-8.069,79.768,7.357    c25.539,16.412,35.915,51.1,39.761,69.612C181.851,403.608,146.826,406.983,122.819,391.555z M143.786,127.52V53.895    l48.575,29.999l64.135-39.28l63.67,39.321l48.044-29.921v73.506c0,61.875-50.338,112.212-112.212,112.212    S143.786,189.395,143.786,127.52z M274.718,482.006h-37.436V268.494c6.127,0.809,12.373,1.233,18.718,1.233    s12.591-0.424,18.718-1.233V482.006z M389.179,391.555c-25.54,16.415-61.404,11.439-79.838,7.247    c4.343-20.811,15.824-54.074,39.831-69.502c25.5-16.389,61.286-11.456,79.748-7.268    C425.057,340.577,414.674,375.172,389.179,391.555z" fill="#5d85cb" data-original="#000000" style=""/>
	</g>
</g>
<g xmlns="http://www.w3.org/2000/svg">
</g>
<g xmlns="http://www.w3.org/2000/svg">
</g>
<g xmlns="http://www.w3.org/2000/svg">
</g>
<g xmlns="http://www.w3.org/2000/svg">
</g>
<g xmlns="http://www.w3.org/2000/svg">
</g>
<g xmlns="http://www.w3.org/2000/svg">
</g>
<g xmlns="http://www.w3.org/2000/svg">
</g>
<g xmlns="http://www.w3.org/2000/svg">
</g>
<g xmlns="http://www.w3.org/2000/svg">
</g>
<g xmlns="http://www.w3.org/2000/svg">
</g>
<g xmlns="http://www.w3.org/2000/svg">
</g>
<g xmlns="http://www.w3.org/2000/svg">
</g>
<g xmlns="http://www.w3.org/2000/svg">
</g>
<g xmlns="http://www.w3.org/2000/svg">
</g>
<g xmlns="http://www.w3.org/2000/svg">
</g>
</g></svg>
