<?xml version="1.0"?>
<svg xmlns="http://www.w3.org/2000/svg" xmlns:xlink="http://www.w3.org/1999/xlink" xmlns:svgjs="http://svgjs.com/svgjs" version="1.1" width="512" height="512" x="0" y="0" viewBox="0 0 512 512" style="enable-background:new 0 0 512 512" xml:space="preserve" class=""><circle r="256" cx="256" cy="256" fill="#eafcfc" shape="circle"/><g transform="matrix(0.7,0,0,0.7,76.80000000000001,76.80000000000001)"><path xmlns="http://www.w3.org/2000/svg" d="m492 200c11.046 0 20-8.954 20-20v-80c0-11.046-8.954-20-20-20h-134v-60c0-11.046-8.954-20-20-20s-20 8.954-20 20v60h-80v-60c0-11.046-8.954-20-20-20s-20 8.954-20 20v60h-80v-60c0-11.046-8.954-20-20-20s-20 8.954-20 20v60h-58c-11.046 0-20 8.954-20 20v312c0 11.046 8.954 20 20 20h58v60c0 11.046 8.954 20 20 20s20-8.954 20-20v-60h80v60c0 11.046 8.954 20 20 20s20-8.954 20-20v-60h80v60c0 11.046 8.954 20 20 20s20-8.954 20-20v-60h134c11.046 0 20-8.954 20-20v-80c0-11.046-8.954-20-20-20-30.879 0-56-25.122-56-56s25.121-56 56-56zm-20 149.905v42.095h-432v-272h432v42.095c-43.368 9.226-76 47.826-76 93.905s32.632 84.679 76 93.905zm-170.861-141.905c-5.522-9.566-17.756-12.843-27.32-7.321l-20.549 11.864c-4.554-3.703-9.699-6.7-15.269-8.837v-23.706c0-11.046-8.954-20-20-20s-20 8.954-20 20v23.706c-5.57 2.138-10.715 5.134-15.269 8.837l-20.549-11.864c-9.566-5.521-21.797-2.244-27.32 7.321-5.523 9.566-2.245 21.798 7.32 27.321l20.521 11.848c-.459 2.878-.704 5.826-.704 8.831s.245 5.953.703 8.832l-20.521 11.848c-9.565 5.523-12.844 17.755-7.32 27.321 5.539 9.596 17.78 12.827 27.32 7.321l20.549-11.864c4.554 3.703 9.699 6.7 15.269 8.837v23.705c0 11.046 8.954 20 20 20s20-8.954 20-20v-23.706c5.57-2.138 10.715-5.134 15.269-8.837l20.549 11.864c9.55 5.512 21.788 2.262 27.32-7.321 5.523-9.566 2.245-21.798-7.32-27.321l-20.521-11.848c.458-2.878.703-5.826.703-8.832s-.245-5.953-.703-8.832l20.521-11.848c9.566-5.521 12.844-17.753 7.321-27.319zm-83.139 64c-8.822 0-16-7.178-16-16s7.178-16 16-16 16 7.178 16 16-7.178 16-16 16z" fill="#5d85cb" data-original="#000000" style="" class=""/></g></svg>
