<?xml version="1.0"?>
<svg xmlns="http://www.w3.org/2000/svg" xmlns:xlink="http://www.w3.org/1999/xlink" xmlns:svgjs="http://svgjs.com/svgjs" version="1.1" width="512" height="512" x="0" y="0" viewBox="0 0 513.614 513.614" style="enable-background:new 0 0 512 512" xml:space="preserve" class=""><circle r="256.807" cx="256.807" cy="256.807" fill="#eafcfc" shape="circle"/><g transform="matrix(0.7,0,0,0.7,77.04255280494692,77.04214096069336)"><g xmlns="http://www.w3.org/2000/svg"><path d="m508.274 138.691c3.152-6.33 4.935-13.456 4.935-20.995 0-26.065-21.206-47.271-47.271-47.271s-47.271 21.205-47.271 47.271c0 7.089 1.579 13.814 4.388 19.855-3.973 2.698-6.584 7.252-6.584 12.416v39.576l-143.76-37.683v-13.854c0-8.284-6.716-15-15-15s-15 6.716-15 15v13.87l-143.567 37.836v-39.75c0-5.164-2.61-9.716-6.582-12.415 2.807-6.041 4.386-12.763 4.386-19.851 0-26.065-21.206-47.271-47.271-47.271s-47.271 21.206-47.271 47.272c0 7.088 1.578 13.811 4.386 19.851-3.972 2.698-6.582 7.251-6.582 12.415v348.651c0 8.284 6.716 15 15 15h68.935c8.284 0 15-6.716 15-15v-19.024l42.036.005c.133.003.262.02.395.02s.261-.016.393-.02l57.409.006c.089.002.176.013.265.013s.175-.012.264-.013l57.669.007c.046 0 .09.007.136.007s.089-.006.135-.007l57.928.007h.006s.004 0 .006 0l100.685.011v17.315c0 8.284 6.716 15 15 15h66.935c8.284 0 15-6.716 15-15v-346.973c-.002-4.5-1.994-8.527-5.133-11.277zm-42.337-38.265c9.523 0 17.271 7.747 17.271 17.271s-7.748 17.271-17.271 17.271-17.271-7.748-17.271-17.271 7.748-17.271 17.271-17.271zm-49.467 284.028h-27.623v-171.137l27.623 7.241zm-231.828 30v35.146l-28.068-.003v-35.143zm-28.068-30v-178.853l28.068-7.397v186.25zm58.068 30h28.068v35.153l-28.068-.003zm58.069 0h28.068v35.159l-28.068-.003zm58.068 0h28.068v35.166l-28.068-.003zm0-30v-186.359l28.068 7.358v179h-28.068zm-30-194.222v194.222h-28.068v-201.58zm-58.068 194.222h-28.068v-194.156l28.068-7.397zm-116.137-170.947v170.946h-27.43v-163.716zm-76.897-113.081c9.523 0 17.271 7.747 17.271 17.271 0 9.484-7.686 17.202-17.155 17.266h-.231c-9.47-.063-17.155-7.781-17.155-17.266-.001-9.524 7.746-17.271 17.27-17.271zm-19.468 383.188v-318.652h19.236c.077 0 .153.006.231.006s.154-.005.231-.006h19.236c.002 63.205-.006 258.92 0 318.651h-38.934zm68.935-69.16h27.431v35.14l-27.431-.003zm289.703 35.169v-35.169h27.623v35.172zm94.558 32.318h-36.935c0-55.152 0-258.414 0-316.973h36.935z" fill="#5d85cb" data-original="#000000" style=""/><path d="m206.458 75.728c-5.858 5.857-5.858 15.355 0 21.213 5.857 5.857 15.355 5.857 21.213 0 16.564-16.563 43.515-16.563 60.079 0 2.929 2.929 6.768 4.394 10.606 4.394s7.678-1.465 10.606-4.394c5.858-5.857 5.858-15.355 0-21.213-28.26-28.262-74.243-28.262-102.504 0z" fill="#5d85cb" data-original="#000000" style=""/><path d="m189.094 58.363c37.836-37.836 99.398-37.836 137.234 0 2.929 2.929 6.768 4.394 10.606 4.394s7.678-1.465 10.606-4.394c5.858-5.857 5.858-15.355 0-21.213-49.532-49.533-130.128-49.533-179.66 0-5.858 5.857-5.858 15.355 0 21.213 5.858 5.857 15.356 5.857 21.214 0z" fill="#5d85cb" data-original="#000000" style=""/></g></g></svg>
