<?xml version="1.0"?>
<svg xmlns="http://www.w3.org/2000/svg" xmlns:xlink="http://www.w3.org/1999/xlink" xmlns:svgjs="http://svgjs.com/svgjs" version="1.1" width="512" height="512" x="0" y="0" viewBox="0 0 74 74" style="enable-background:new 0 0 512 512" xml:space="preserve" class=""><circle r="37" cx="37" cy="37" fill="#eafcfc" shape="circle"/><g transform="matrix(0.7,0,0,0.7,10.455799484252932,11.09984986782074)"><path xmlns="http://www.w3.org/2000/svg" d="m49.166 40.478h-14.558a3.525 3.525 0 0 1 -3.52-3.521v-14.557a3.525 3.525 0 0 1 3.52-3.521h14.558a3.526 3.526 0 0 1 3.521 3.521v14.557a3.526 3.526 0 0 1 -3.521 3.521zm-14.558-19.6a1.523 1.523 0 0 0 -1.52 1.521v14.558a1.522 1.522 0 0 0 1.52 1.521h14.558a1.522 1.522 0 0 0 1.521-1.521v-14.557a1.523 1.523 0 0 0 -1.521-1.521z" fill="#5d85cb" data-original="#000000" style="" class=""/><path xmlns="http://www.w3.org/2000/svg" d="m44.1 20.878h-4.43a1 1 0 0 1 -1-1v-10.095a1 1 0 0 1 2 0v9.1h2.43v-9.1a1 1 0 0 1 2 0v10.1a1 1 0 0 1 -1 .995z" fill="#5d85cb" data-original="#000000" style="" class=""/><path xmlns="http://www.w3.org/2000/svg" d="m29 10.782a4.093 4.093 0 1 1 .526-8.151l9.3 1.212a1 1 0 0 1 .737 1.491 2.668 2.668 0 0 0 0 2.7 1 1 0 0 1 -.736 1.491l-9.3 1.223a4.237 4.237 0 0 1 -.527.034zm0-6.182a2.093 2.093 0 0 0 -1.381.52 2.058 2.058 0 0 0 -.708 1.568 2.1 2.1 0 0 0 .713 1.578 2.081 2.081 0 0 0 1.647.5l8.043-1.057a4.623 4.623 0 0 1 0-2.045l-8.042-1.049a2.056 2.056 0 0 0 -.272-.015z" fill="#5d85cb" data-original="#000000" style="" class=""/><path xmlns="http://www.w3.org/2000/svg" d="m54.765 10.783a4.254 4.254 0 0 1 -.528-.034l-9.292-1.224a1 1 0 0 1 -.735-1.49 2.668 2.668 0 0 0 0-2.7 1 1 0 0 1 .737-1.491l9.289-1.212a4.093 4.093 0 1 1 .529 8.152zm-8.3-3.075 8.035 1.058a2.1 2.1 0 0 0 2.369-2.081 2.06 2.06 0 0 0 -.706-1.566 2.109 2.109 0 0 0 -1.666-.5l-8.03 1.048a4.623 4.623 0 0 1 0 2.045z" fill="#5d85cb" data-original="#000000" style="" class=""/><path xmlns="http://www.w3.org/2000/svg" d="m22.413 51.773h-11.838a3.524 3.524 0 0 1 -3.52-3.521v-.967a3.525 3.525 0 0 1 3.52-3.521h11.838a3.526 3.526 0 0 1 3.521 3.521v.967a3.525 3.525 0 0 1 -3.521 3.521zm-11.838-6.009a1.521 1.521 0 0 0 -1.52 1.521v.967a1.521 1.521 0 0 0 1.52 1.521h11.838a1.522 1.522 0 0 0 1.521-1.521v-.967a1.522 1.522 0 0 0 -1.521-1.521z" fill="#5d85cb" data-original="#000000" style="" class=""/><path xmlns="http://www.w3.org/2000/svg" d="m22.14 45.762a1 1 0 0 1 -1-1v-4.128a6.44 6.44 0 0 1 6.433-6.434h3.515v-9.284h-3.515a15.737 15.737 0 0 0 -15.719 15.718v4.128a1 1 0 0 1 -2 0v-4.128a17.739 17.739 0 0 1 17.719-17.718h4.515a1 1 0 0 1 1 1v11.284a1 1 0 0 1 -1 1h-4.515a4.438 4.438 0 0 0 -4.433 4.433v4.128a1 1 0 0 1 -1 1.001z" fill="#5d85cb" data-original="#000000" style="" class=""/><path xmlns="http://www.w3.org/2000/svg" d="m59.7 36.321h-8.01a1 1 0 0 1 0-2h7.01v-9.285h-7.01a1 1 0 0 1 0-2h8.01a1 1 0 0 1 1 1v11.285a1 1 0 0 1 -1 1z" fill="#5d85cb" data-original="#000000" style="" class=""/><path xmlns="http://www.w3.org/2000/svg" d="m65.945 44.984a1.031 1.031 0 0 1 -.124-.007 8.147 8.147 0 0 1 -7.121-8.071v-14.455a8.146 8.146 0 0 1 7.124-8.071 1 1 0 0 1 1.124.992v28.612a1 1 0 0 1 -1 1zm-1-28.37a6.146 6.146 0 0 0 -4.245 5.837v14.455a6.147 6.147 0 0 0 4.248 5.837z" fill="#5d85cb" data-original="#000000" style="" class=""/><path xmlns="http://www.w3.org/2000/svg" d="m11.765 65.118a3.885 3.885 0 0 1 -3.881-3.881c0-1.779 2.519-6.047 3.024-6.884a1.04 1.04 0 0 1 1.713 0c.5.837 3.025 5.1 3.025 6.884a3.886 3.886 0 0 1 -3.881 3.881zm0-8.243a15.854 15.854 0 0 0 -1.881 4.362 1.881 1.881 0 1 0 3.762 0 15.873 15.873 0 0 0 -1.881-4.362z" fill="#5d85cb" data-original="#000000" style="" class=""/><path xmlns="http://www.w3.org/2000/svg" d="m20.179 72a3.885 3.885 0 0 1 -3.879-3.881c0-1.779 2.519-6.047 3.024-6.885a1.04 1.04 0 0 1 1.713 0c.5.838 3.025 5.106 3.025 6.885a3.886 3.886 0 0 1 -3.883 3.881zm0-8.244a15.856 15.856 0 0 0 -1.879 4.363 1.881 1.881 0 0 0 3.762 0 15.863 15.863 0 0 0 -1.883-4.363z" fill="#5d85cb" data-original="#000000" style="" class=""/><path xmlns="http://www.w3.org/2000/svg" d="m41.887 11.373a4.687 4.687 0 1 1 4.686-4.686 4.692 4.692 0 0 1 -4.686 4.686zm0-7.373a2.687 2.687 0 1 0 2.686 2.687 2.69 2.69 0 0 0 -2.686-2.687z" fill="#5d85cb" data-original="#000000" style="" class=""/><path xmlns="http://www.w3.org/2000/svg" d="m3.762 24.459c-.033 0-.065 0-.1 0a1 1 0 0 1 -.9-1.092 13.113 13.113 0 0 1 14.3-11.78 1 1 0 1 1 -.191 1.991 11.113 11.113 0 0 0 -12.115 9.978 1 1 0 0 1 -.994.903z" fill="#5d85cb" data-original="#000000" style="" class=""/><path xmlns="http://www.w3.org/2000/svg" d="m7.776 24.847c-.032 0-.064 0-.1 0a1 1 0 0 1 -.9-1.092 9.074 9.074 0 0 1 9.9-8.153 1 1 0 0 1 -.192 1.991 7.073 7.073 0 0 0 -7.712 6.354 1 1 0 0 1 -.996.9z" fill="#5d85cb" data-original="#000000" style="" class=""/><path xmlns="http://www.w3.org/2000/svg" d="m11.79 25.234a.825.825 0 0 1 -.1-.005 1 1 0 0 1 -.9-1.091 5.028 5.028 0 0 1 5.494-4.525 1 1 0 1 1 -.184 1.987 3.048 3.048 0 0 0 -3.311 2.728 1 1 0 0 1 -.999.906z" fill="#5d85cb" data-original="#000000" style="" class=""/></g></svg>
