<?xml version="1.0"?>
<svg xmlns="http://www.w3.org/2000/svg" xmlns:xlink="http://www.w3.org/1999/xlink" xmlns:svgjs="http://svgjs.com/svgjs" version="1.1" width="512" height="512" x="0" y="0" viewBox="0 0 512 512" style="enable-background:new 0 0 512 512" xml:space="preserve"><circle r="256" cx="256" cy="256" fill="#eafcfc" shape="circle"/><g transform="matrix(0.7,0,0,0.7,76.80000000000001,76.80000000000001)"><g xmlns="http://www.w3.org/2000/svg" id="outline"><path d="M64,448H56a8,8,0,0,0-8,8v32a8,8,0,0,0,8,8H456a8,8,0,0,0,8-8V456a8,8,0,0,0-8-8h-8V64h8a8,8,0,0,0,8-8V24a8,8,0,0,0-8-8H56a8,8,0,0,0-8,8V56a8,8,0,0,0,8,8h8ZM160,64h46.141L196,112.16A350.435,350.435,0,0,1,113.662,274.2L108.437,280H107.7l27.652-71.106A361.14,361.14,0,0,0,160,77.483Zm129.509,0,6.154,29.232a152.994,152.994,0,0,0-79.325,0L222.491,64ZM432,312H408V296h24ZM280,448V304H392v15.073L361.664,448Zm-129.664,0L120,319.073V304H232V448Zm61.322-332.543.921-4.374a136.615,136.615,0,0,1,86.842,0l.921,4.372q1.266,6.012,2.733,11.968a152.922,152.922,0,0,0-94.15,0Q210.39,121.471,211.658,115.457ZM248,256V136.237c2.654-.153,5.32-.237,8-.237s5.346.084,8,.236V256Zm32-117.892a134.309,134.309,0,0,1,28.3,8.31A366.745,366.745,0,0,0,363,256H280Zm-76.3,8.315a134.378,134.378,0,0,1,28.3-8.316V256H149A366.737,366.737,0,0,0,203.7,146.423ZM136.62,272H375.38q5.379,6.567,11.065,12.9l2.792,3.1H122.763l2.792-3.1Q131.246,278.574,136.62,272ZM248,304h16V448H248Zm155.562-24-5.224-5.805A350.435,350.435,0,0,1,316,112.16l-1.892-8.988,0,0L305.859,64H352V77.483a361.14,361.14,0,0,0,24.653,131.411L404.305,280ZM104,296v16H80V296ZM80,328h25.664L133.9,448H80ZM448,480H64V464H448Zm-69.9-32,28.235-120H432V448ZM432,280H421.472l-29.907-76.9A345.2,345.2,0,0,1,368,77.483V64h64ZM64,32H448V48H64Zm80,32V77.483A345.2,345.2,0,0,1,120.435,203.1L90.528,280H80V64Z" fill="#5d85cb" data-original="#000000" style=""/></g></g></svg>
